<?xml version="1.0" standalone="no"?>
<!DOCTYPE svg PUBLIC "-//W3C//DTD SVG 20010904//EN"
 "http://www.w3.org/TR/2001/REC-SVG-20010904/DTD/svg10.dtd">
<svg version="1.0" xmlns="http://www.w3.org/2000/svg"
 width="700.000000pt" height="700.000000pt" viewBox="0 0 700.000000 700.000000"
 preserveAspectRatio="xMidYMid meet">
<metadata>
Created by potrace 1.14, written by Peter Selinger 2001-2017
</metadata>
<g transform="translate(0.000000,700.000000) scale(0.100000,-0.100000)"
fill="#000000" stroke="none">
<path d="M2956 6319 c-108 -30 -129 -173 -34 -241 32 -22 40 -23 233 -23 110
0 202 -3 205 -7 4 -5 5 -290 1 -334 -1 -6 -7 -11 -13 -11 -24 0 -163 -13 -183
-17 -11 -2 -42 -7 -70 -11 -202 -29 -513 -128 -703 -224 l-63 -32 -197 201
c-201 204 -203 206 -272 200 -42 -3 -69 -26 -315 -265 -131 -126 -274 -265
-319 -308 -203 -195 -309 -304 -317 -326 -5 -13 -9 -43 -8 -67 3 -49 8 -55
222 -274 78 -80 148 -153 155 -162 11 -14 7 -28 -27 -96 -79 -157 -143 -329
-196 -527 -18 -69 -54 -284 -62 -375 -13 -142 -7 -456 11 -560 2 -14 10 -59
16 -100 21 -129 46 -226 104 -397 247 -728 840 -1313 1584 -1562 87 -30 327
-88 393 -96 30 -3 61 -8 69 -10 38 -9 198 -19 330 -19 131 0 315 10 329 18 3
2 29 6 56 10 28 3 61 8 75 11 14 3 39 8 55 10 137 25 387 109 560 189 790 369
1347 1159 1431 2031 10 103 11 367 1 470 -29 316 -125 650 -264 917 -40 77
-44 67 47 159 212 216 288 297 299 316 15 29 16 80 3 113 -9 22 -121 138 -317
326 -38 36 -182 175 -318 308 -137 132 -260 247 -274 255 -17 8 -44 11 -77 8
l-51 -5 -191 -197 -191 -197 -60 31 c-219 110 -562 214 -778 236 -11 1 -42 5
-70 9 -27 3 -67 7 -87 8 -21 1 -38 7 -39 13 -5 45 -3 304 2 319 5 19 17 20
200 21 216 1 237 5 276 64 41 61 22 145 -44 188 -25 17 -64 18 -558 19 -291 0
-543 -3 -559 -7z m-975 -936 l104 -106 -30 -23 c-244 -188 -385 -321 -526
-498 -46 -59 -86 -106 -90 -106 -5 0 -99 97 -188 194 l-24 26 22 19 c29 25
558 539 590 573 14 15 29 28 32 28 3 0 52 -48 110 -107z m3288 -27 c75 -74
165 -162 201 -196 102 -98 300 -292 300 -295 0 -1 -47 -51 -104 -111 -68 -70
-108 -105 -114 -99 -5 6 -47 57 -93 115 -136 170 -251 278 -514 485 l-30 23
105 106 c57 58 106 106 109 106 2 0 65 -60 140 -134z m-1519 3 c56 -8 138 -22
204 -35 10 -2 53 -12 95 -23 668 -174 1214 -654 1473 -1294 41 -102 91 -262
108 -347 5 -25 11 -55 14 -67 2 -11 8 -43 12 -70 3 -26 9 -57 11 -68 3 -11 7
-108 9 -215 5 -258 -14 -415 -77 -640 -103 -364 -289 -681 -559 -950 -63 -64
-133 -129 -155 -145 -22 -17 -47 -36 -55 -44 -24 -23 -228 -155 -300 -194
-158 -86 -438 -187 -590 -213 -14 -3 -50 -9 -81 -14 -30 -6 -82 -13 -115 -17
-79 -10 -402 -10 -484 -1 -759 87 -1407 552 -1735 1245 -100 210 -173 465
-191 668 -3 33 -7 76 -10 95 -6 54 -5 281 1 341 12 108 27 205 40 259 8 30 16
69 19 85 18 114 119 371 207 529 52 94 131 218 149 236 3 3 18 23 35 45 205
275 553 542 889 680 168 69 413 134 566 150 36 4 66 8 68 10 8 8 393 2 452 -6z"/>
<path d="M3369 4866 c-2 -2 -31 -6 -64 -9 -33 -3 -94 -13 -136 -21 -666 -138
-1176 -648 -1314 -1314 -39 -187 -41 -449 -4 -646 12 -67 63 -244 85 -296 128
-300 293 -523 519 -701 231 -182 460 -283 777 -345 97 -19 265 -26 319 -13
101 23 154 142 105 237 -33 64 -90 90 -209 93 -180 4 -366 52 -542 139 -598
296 -889 990 -679 1620 104 312 322 581 601 740 139 80 329 149 448 164 28 3
61 8 75 11 31 7 266 7 300 0 14 -2 54 -9 90 -15 36 -6 101 -21 145 -34 98 -29
147 -26 195 12 87 70 93 185 14 258 -34 33 -224 89 -364 109 -50 7 -355 16
-361 11z"/>
<path d="M4457 4355 c-48 -17 3 32 -597 -568 -417 -418 -509 -514 -519 -547
-18 -60 -1 -128 41 -167 53 -50 132 -62 193 -30 37 19 1062 1043 1081 1080 67
128 -63 279 -199 232z"/>
</g>
</svg>
